Coordinates
version=1
nRows=32
nColumns=22
inDegrees=yes

Units are S.I. units (second, meters, Newtons, ...)
If the header above contains a line with 'inDegrees', this indicates whether rotational values are in degrees (yes) or radians (no).

endheader
time	pelvis_tilt	pelvis_list	pelvis_rotation	pelvis_tx	pelvis_ty	pelvis_tz	hip_flexion_r	hip_adduction_r	hip_rotation_r	knee_angle_r	ankle_angle_r	subtalar_angle_r	hip_flexion_l	hip_adduction_l	hip_rotation_l	knee_angle_l	ankle_angle_l	subtalar_angle_l	lumbar_extension	lumbar_bending	lumbar_rotation
      0.01000000	     -0.40605188	      0.22013094	    -30.20991048	     -0.96532298	      0.90208535	     -0.38554405	     -5.59365652	      0.54796543	     -3.17757432	     -5.90315052	     18.55275888	     -2.34132114	     -0.79060382	     -0.41648936	    -11.77887193	    -15.25342067	     17.80489573	     -1.56144848	     -3.65856156	     -1.75880388	      3.11932416
      0.02000000	     -0.40949288	      0.22095113	    -30.20147560	     -0.96534119	      0.90207399	     -0.38557600	     -5.59091846	      0.54890410	     -3.17853345	     -5.89965387	     18.55262364	     -2.34154584	     -0.78917620	     -0.41886667	    -11.78262530	    -15.24480118	     17.80589333	     -1.56096095	     -3.66274709	     -1.76007461	      3.12021910
      0.03000000	     -0.42136905	      0.22215452	    -30.19214142	     -0.96531556	      0.90205570	     -0.38557912	     -5.58964965	      0.55529728	     -3.19438049	     -5.88394175	     18.55007984	     -2.34354247	     -0.79872519	     -0.42334205	    -11.79259005	    -15.20720532	     17.81097449	     -1.55640626	     -3.64602439	     -1.75828372	      3.11727617
      0.04000000	     -0.42558297	      0.22387341	    -30.18119238	     -0.96533929	      0.90205081	     -0.38562366	     -5.58496544	      0.55592437	     -3.19560959	     -5.88024463	     18.54943333	     -2.34375953	     -0.79646960	     -0.42475895	    -11.79557553	    -15.19589337	     17.81160814	     -1.55550084	     -3.65282060	     -1.76001925	      3.11912705
      0.05000000	     -0.43780453	      0.22831830	    -30.16738475	     -0.96531535	      0.90204147	     -0.38562794	     -5.57782328	      0.56051990	     -3.21616564	     -5.87224219	     18.54285548	     -2.34664917	     -0.80593459	     -0.42631549	    -11.79673406	    -15.15229030	     17.81192515	     -1.54834165	     -3.63454297	     -1.76370446	      3.11586957
      0.06000000	     -0.44160745	      0.23081814	    -30.15549838	     -0.96534443	      0.90204777	     -0.38567555	     -5.57143696	      0.56063940	     -3.21759571	     -5.87005006	     18.54192371	     -2.34700654	     -0.80208068	     -0.42695063	    -11.79822220	    -15.14229669	     17.81143130	     -1.54719455	     -3.64359290	     -1.76579364	      3.11751678
      0.07000000	     -0.44568999	      0.23314119	    -30.13967585	     -0.96536752	      0.90205762	     -0.38570883	     -5.56489312	      0.56296930	     -3.21997741	     -5.87078047	     18.54017909	     -2.34772135	     -0.79930109	     -0.42917287	    -11.79962728	    -15.13050710	     17.81020813	     -1.54577991	     -3.64913840	     -1.77194893	      3.11848200
      0.08000000	     -0.46335052	      0.25028301	    -30.10993210	     -0.96536098	      0.90205359	     -0.38576505	     -5.52052923	      0.55768860	     -3.28390514	     -5.90660783	     18.51807564	     -2.36210875	     -0.78909627	     -0.41731196	    -11.75604386	    -15.08878232	     17.78172588	     -1.52315395	     -3.62737190	     -1.78102789	      3.08827587
      0.09000000	     -0.46533363	      0.25195360	    -30.09030583	     -0.96538265	      0.90206890	     -0.38579330	     -5.51561642	      0.56106217	     -3.28151966	     -5.90845614	     18.51932712	     -2.36232420	     -0.78450389	     -0.42028194	    -11.75641791	    -15.08449819	     17.78051837	     -1.52212209	     -3.63528651	     -1.78922223	      3.09069788
      0.10000000	     -0.46712179	      0.25861348	    -30.05383542	     -0.96542638	      0.90208109	     -0.38587310	     -5.48832627	      0.55931376	     -3.29668359	     -5.94736352	     18.52534916	     -2.37321176	     -0.76098019	     -0.41622823	    -11.71006895	    -15.10086433	     17.75943268	     -1.50711328	     -3.65075257	     -1.79915837	      3.06012175
      0.11000000	     -0.46937329	      0.26009010	    -30.03179794	     -0.96542963	      0.90209157	     -0.38589454	     -5.48465420	      0.56343882	     -3.29468279	     -5.95058588	     18.52591028	     -2.37409273	     -0.75860186	     -0.41888181	    -11.71205992	    -15.09275446	     17.75891728	     -1.50632804	     -3.65570094	     -1.80591924	      3.06178259
      0.12000000	     -0.46456699	      0.25909374	    -29.99700316	     -0.96544673	      0.90211190	     -0.38595267	     -5.47158732	      0.56579380	     -3.30031886	     -5.98634168	     18.52971986	     -2.39159795	     -0.75962390	     -0.41597814	    -11.66650423	    -15.08630808	     17.74735576	     -1.49545254	     -3.67743995	     -1.80866917	      3.02735734
      0.13000000	     -0.46489483	      0.25995895	    -29.97377745	     -0.96543927	      0.90211744	     -0.38597141	     -5.47069873	      0.56930734	     -3.29619936	     -5.98986079	     18.53040984	     -2.39300769	     -0.75871615	     -0.41747010	    -11.66695285	    -15.08020566	     17.74696018	     -1.49491715	     -3.68483855	     -1.81455521	      3.03020241
      0.14000000	     -0.44037708	      0.24736199	    -29.94193099	     -0.96545975	      0.90216156	     -0.38603720	     -5.49022994	      0.57105339	     -3.28429903	     -6.01031364	     18.53837337	     -2.41546523	     -0.78005928	     -0.41305938	    -11.61334745	    -15.08248474	     17.74008274	     -1.48813982	     -3.73822337	     -1.81484422	      3.00665401
      0.15000000	     -0.43919413	      0.24686764	    -29.92224239	     -0.96547175	      0.90216362	     -0.38604091	     -5.49157452	      0.57615534	     -3.28044890	     -6.01184459	     18.53902919	     -2.41745229	     -0.78070158	     -0.41568740	    -11.61328564	    -15.07616899	     17.73997640	     -1.48795692	     -3.74847626	     -1.82258666	      3.00912482
      0.16000000	     -0.35979913	      0.19657200	    -29.88651108	     -0.96544727	      0.90229733	     -0.38607601	     -5.61749794	      0.58588725	     -3.29481245	     -5.97542578	     18.55041961	     -2.48907235	     -0.89643741	     -0.41364586	    -11.53979477	    -15.04236027	     17.73621859	     -1.48416741	     -3.87614816	     -1.81646739	      2.97377305
      0.17000000	     -0.35909061	      0.19716664	    -29.87731525	     -0.96548583	      0.90229616	     -0.38608419	     -5.61600618	      0.58827919	     -3.29097859	     -5.97512197	     18.54869908	     -2.49027325	     -0.89272355	     -0.41414361	    -11.53973555	    -15.04115486	     17.73584660	     -1.48437174	     -3.89028047	     -1.82315237	      2.97836542
      0.18000000	     -0.34004693	      0.18836780	    -29.86953649	     -0.96555255	      0.90232130	     -0.38610371	     -5.63281336	      0.58911298	     -3.27208425	     -5.98113321	     18.54343072	     -2.49709217	     -0.89565309	     -0.41436648	    -11.51998463	    -15.06907091	     17.73339813	     -1.48563926	     -3.93370601	     -1.83289653	      2.99329189
      0.19000000	     -0.31369124	      0.16628301	    -29.86607204	     -0.96561372	      0.90236504	     -0.38611684	     -5.67583679	      0.59809572	     -3.25474131	     -5.96306606	     18.54361595	     -2.51272972	     -0.92212598	     -0.42169387	    -11.50598165	    -15.08001101	     17.73392309	     -1.49075826	     -3.99387377	     -1.83036246	      3.00093714
      0.20000000	     -0.31524776	      0.16556634	    -29.87097950	     -0.96566280	      0.90235947	     -0.38610769	     -5.67434944	      0.60104395	     -3.25643723	     -5.95754246	     18.54333023	     -2.51365959	     -0.92052719	     -0.42272969	    -11.50629805	    -15.07609754	     17.73438697	     -1.49106142	     -4.00303839	     -1.83428288	      2.99980547
      0.21000000	     -0.31606842	      0.16437899	    -29.87546903	     -0.96571571	      0.90235706	     -0.38610037	     -5.67417649	      0.60387089	     -3.25693573	     -5.95205359	     18.54312138	     -2.51447959	     -0.91825187	     -0.42417041	    -11.50514348	    -15.07447997	     17.73475225	     -1.49136331	     -4.01364667	     -1.83885659	      3.00023982
      0.22000000	     -0.27035798	      0.13133010	    -29.88248494	     -0.96575207	      0.90243539	     -0.38607127	     -5.76832203	      0.61407354	     -3.21797586	     -5.88749234	     18.52243848	     -2.54177004	     -0.98321204	     -0.43071022	    -11.50812027	    -15.06664437	     17.74378614	     -1.50238980	     -4.09075233	     -1.83978369	      3.00782528
      0.23000000	     -0.27222351	      0.13091622	    -29.89243418	     -0.96581205	      0.90243357	     -0.38606198	     -5.76533951	      0.61570847	     -3.22057185	     -5.88303477	     18.52226497	     -2.54222163	     -0.97967191	     -0.43165813	    -11.50603662	    -15.06555099	     17.74345213	     -1.50242302	     -4.09898087	     -1.84454365	      3.00802489
      0.24000000	     -0.27387215	      0.13070460	    -29.90312393	     -0.96587377	      0.90243311	     -0.38605269	     -5.76264503	      0.61736389	     -3.22219806	     -5.87745720	     18.52209174	     -2.54252463	     -0.97613564	     -0.43238112	    -11.50367052	    -15.06510504	     17.74309048	     -1.50246543	     -4.10735909	     -1.85032197	      3.00891249
      0.25000000	     -0.27547914	      0.13098593	    -29.91609122	     -0.96593944	      0.90243446	     -0.38603959	     -5.76005740	      0.61830019	     -3.22310389	     -5.87018335	     18.52178653	     -2.54270444	     -0.97259691	     -0.43302642	    -11.50111579	    -15.06489944	     17.74267898	     -1.50255983	     -4.11602233	     -1.85697267	      3.01050259
      0.26000000	     -0.25931036	      0.14420584	    -29.96044549	     -0.96600620	      0.90245697	     -0.38598561	     -5.78322649	      0.59444097	     -3.15432011	     -5.82928573	     18.50648938	     -2.54451043	     -0.99531735	     -0.40739315	    -11.52287412	    -15.04250120	     17.72705656	     -1.51139064	     -4.12993065	     -1.88978357	      3.06136337
      0.27000000	     -0.26221483	      0.14399904	    -29.97498174	     -0.96608066	      0.90246163	     -0.38597157	     -5.77916374	      0.59706092	     -3.15786244	     -5.82234599	     18.50667048	     -2.54468139	     -0.99125979	     -0.40963496	    -11.52165336	    -15.04038081	     17.72671874	     -1.51171022	     -4.13978554	     -1.89531941	      3.06114471
      0.28000000	     -0.26270591	      0.14874715	    -30.00518535	     -0.96615530	      0.90246816	     -0.38593798	     -5.78142529	      0.59132275	     -3.15306801	     -5.79936265	     18.49837375	     -2.54368164	     -0.98982158	     -0.40500921	    -11.53629254	    -15.03801368	     17.72205441	     -1.51781458	     -4.14613361	     -1.90932599	      3.10442901
      0.29000000	     -0.26692224	      0.14882814	    -30.02238840	     -0.96624833	      0.90247480	     -0.38592327	     -5.77486645	      0.59406926	     -3.15553015	     -5.79115134	     18.49788244	     -2.54341310	     -0.98451333	     -0.40805194	    -11.53669445	    -15.03386012	     17.72182077	     -1.51844236	     -4.15800032	     -1.91662451	      3.10289131
      0.30000000	     -0.27679799	      0.15956439	    -30.06877533	     -0.96634286	      0.90246984	     -0.38587677	     -5.76266139	      0.58591716	     -3.13688082	     -5.76732989	     18.47506892	     -2.53472908	     -0.97229046	     -0.40339458	    -11.58074551	    -15.03031454	     17.71565809	     -1.53111641	     -4.15232169	     -1.93258369	      3.16392815
      0.31000000	     -0.28343454	      0.15883087	    -30.08713604	     -0.96644916	      0.90247415	     -0.38587011	     -5.75316510	      0.58978020	     -3.13938818	     -5.75858670	     18.47487336	     -2.53391847	     -0.96454187	     -0.40814296	    -11.58158833	    -15.02568401	     17.71561202	     -1.53192551	     -4.16781608	     -1.94181089	      3.16133600
      0.32000000	     -0.29163800	      0.15812328	    -30.11058645	     -0.96655948	      0.90247755	     -0.38586792	     -5.74223266	      0.59329824	     -3.14424114	     -5.74767179	     18.47372214	     -2.53280033	     -0.95461195	     -0.41227076	    -11.58348690	    -15.02242278	     17.71562138	     -1.53299728	     -4.18374436	     -1.95107131	      3.16100742
